<svg xmlns="http://www.w3.org/2000/svg" xmlns:xlink="http://www.w3.org/1999/xlink" viewBox="0,0,256,256" width="48px" height="48px" fill-rule="nonzero"><g fill-opacity="0" fill="#dddddd" fill-rule="nonzero" stroke="none" stroke-width="1" stroke-linecap="butt" stroke-linejoin="miter" stroke-miterlimit="10" stroke-dasharray="" stroke-dashoffset="0" font-family="none" font-weight="none" font-size="none" text-anchor="none" style="mix-blend-mode: normal"><path d="M0,256v-256h256v256z" id="bgRectangle"></path></g><g fill="none" fill-rule="nonzero" stroke="none" stroke-width="1" stroke-linecap="butt" stroke-linejoin="miter" stroke-miterlimit="10" stroke-dasharray="" stroke-dashoffset="0" font-family="none" font-weight="none" font-size="none" text-anchor="none" style="mix-blend-mode: normal"><g transform="scale(5.33333,5.33333)"><path d="M6,10c0,-2.209 1.791,-4 4,-4h28c2.209,0 4,1.791 4,4v28c0,2.209 -1.791,4 -4,4h-28c-2.209,0 -4,-1.791 -4,-4z" fill="#b388ff"></path><path d="M9,9v30h30v-30z" fill="#170b40"></path><path d="M21.183,27.965h-4.555l-0.866,2.846h-2.762l4.694,-13.811h2.407l4.719,13.81h-2.762zM17.33,25.66h3.152l-1.584,-5.17zM30.146,31c-0.728,0 -1.379,-0.13 -1.953,-0.389c-0.575,-0.259 -1.062,-0.614 -1.464,-1.063c-0.402,-0.449 -0.707,-0.975 -0.918,-1.579c-0.21,-0.604 -0.316,-1.25 -0.316,-1.94v-0.37c0,-0.778 0.103,-1.491 0.308,-2.139c0.204,-0.648 0.496,-1.206 0.875,-1.674c0.377,-0.468 0.837,-0.833 1.376,-1.096c0.54,-0.262 1.145,-0.394 1.814,-0.394c0.675,0 1.27,0.122 1.784,0.365c0.514,0.243 0.945,0.585 1.295,1.025c0.349,0.439 0.612,0.969 0.788,1.589c0.176,0.62 0.265,1.31 0.265,2.069v1.167h-5.966c0.04,0.335 0.123,0.639 0.247,0.91c0.124,0.272 0.283,0.504 0.476,0.697c0.193,0.193 0.42,0.343 0.679,0.451c0.26,0.108 0.552,0.161 0.875,0.161c0.456,0 0.878,-0.093 1.264,-0.28c0.387,-0.186 0.719,-0.476 0.996,-0.868l1.23,1.508c-0.15,0.234 -0.338,0.462 -0.563,0.683c-0.225,0.221 -0.491,0.419 -0.797,0.593c-0.306,0.174 -0.65,0.313 -1.035,0.417c-0.384,0.105 -0.803,0.157 -1.26,0.157zM29.861,22.577c-0.272,0 -0.509,0.052 -0.715,0.157c-0.205,0.104 -0.381,0.25 -0.528,0.436c-0.147,0.186 -0.267,0.409 -0.359,0.669c-0.092,0.259 -0.158,0.547 -0.198,0.863h3.481v-0.218c-0.006,-0.272 -0.042,-0.525 -0.109,-0.759c-0.066,-0.234 -0.167,-0.436 -0.303,-0.607c-0.136,-0.171 -0.309,-0.303 -0.519,-0.398c-0.213,-0.095 -0.462,-0.143 -0.75,-0.143z" fill="#b388ff"></path></g></g></svg>