<svg xmlns="http://www.w3.org/2000/svg" xmlns:xlink="http://www.w3.org/1999/xlink" viewBox="0,0,256,256" width="48px" height="48px" fill-rule="nonzero"><g fill-opacity="0" fill="#dddddd" fill-rule="nonzero" stroke="none" stroke-width="1" stroke-linecap="butt" stroke-linejoin="miter" stroke-miterlimit="10" stroke-dasharray="" stroke-dashoffset="0" font-family="none" font-weight="none" font-size="none" text-anchor="none" style="mix-blend-mode: normal"><path d="M0,256v-256h256v256z" id="bgRectangle"></path></g><g fill="none" fill-rule="nonzero" stroke="none" stroke-width="1" stroke-linecap="butt" stroke-linejoin="miter" stroke-miterlimit="10" stroke-dasharray="" stroke-dashoffset="0" font-family="none" font-weight="none" font-size="none" text-anchor="none" style="mix-blend-mode: normal"><g transform="scale(5.33333,5.33333)"><path d="M6,10c0,-2.209 1.791,-4 4,-4h28c2.209,0 4,1.791 4,4v28c0,2.209 -1.791,4 -4,4h-28c-2.209,0 -4,-1.791 -4,-4z" fill="#ff41c8"></path><path d="M9,9v30h30v-30zM19.093,21.695l1.914,-4.883h3.291l-3.34,7.051l3.418,7.168h-3.33l-1.953,-4.971l-1.943,4.971h-3.33l3.418,-7.168l-3.35,-7.051h3.291zM25.069,25.426c0,-1.732 0.293,-3.024 0.879,-3.877c0.586,-0.853 1.438,-1.279 2.559,-1.279c0.813,0 1.491,0.352 2.031,1.055v-5.293h2.783v15h-2.51l-0.127,-1.074c-0.566,0.847 -1.296,1.27 -2.188,1.27c-1.106,0 -1.951,-0.423 -2.534,-1.27c-0.583,-0.847 -0.881,-2.09 -0.894,-3.73v-0.802zM27.843,26.119c0,1.042 0.11,1.77 0.332,2.183c0.222,0.413 0.596,0.62 1.123,0.62c0.547,0 0.96,-0.244 1.24,-0.732v-4.824c-0.273,-0.521 -0.684,-0.781 -1.23,-0.781c-0.508,0 -0.879,0.205 -1.113,0.615c-0.234,0.41 -0.352,1.14 -0.352,2.188z" fill="#16020b"></path></g></g></svg>