<svg xmlns="http://www.w3.org/2000/svg" xmlns:xlink="http://www.w3.org/1999/xlink" viewBox="0,0,256,256" width="48px" height="48px" fill-rule="nonzero"><g fill-opacity="0" fill="#dddddd" fill-rule="nonzero" stroke="none" stroke-width="1" stroke-linecap="butt" stroke-linejoin="miter" stroke-miterlimit="10" stroke-dasharray="" stroke-dashoffset="0" font-family="none" font-weight="none" font-size="none" text-anchor="none" style="mix-blend-mode: normal"><path d="M0,256v-256h256v256z" id="bgRectangle"></path></g><g fill="none" fill-rule="nonzero" stroke="none" stroke-width="1" stroke-linecap="butt" stroke-linejoin="miter" stroke-miterlimit="10" stroke-dasharray="" stroke-dashoffset="0" font-family="none" font-weight="none" font-size="none" text-anchor="none" style="mix-blend-mode: normal"><g transform="scale(5.33333,5.33333)"><path d="M26,17h-8c-3.866,0 -7,-3.134 -7,-7v0c0,-3.866 3.134,-7 7,-7h8z" fill="#e64a19"></path><path d="M25,31h-7c-3.866,0 -7,-3.134 -7,-7v0c0,-3.866 3.134,-7 7,-7h7z" fill="#7c4dff"></path><path d="M18,45v0c-3.866,0 -7,-3.134 -7,-7v0c0,-3.866 3.134,-7 7,-7h7v7c0,3.866 -3.134,7 -7,7z" fill="#66bb6a"></path><path d="M32,17h-7v-14h7c3.866,0 7,3.134 7,7v0c0,3.866 -3.134,7 -7,7z" fill="#ff7043"></path><circle cx="32" cy="24" r="7" fill="#29b6f6"></circle></g></g></svg>