<svg xmlns="http://www.w3.org/2000/svg" xmlns:xlink="http://www.w3.org/1999/xlink" viewBox="0,0,256,256" width="48px" height="48px" fill-rule="nonzero"><g fill-opacity="0" fill="#dddddd" fill-rule="nonzero" stroke="none" stroke-width="1" stroke-linecap="butt" stroke-linejoin="miter" stroke-miterlimit="10" stroke-dasharray="" stroke-dashoffset="0" font-family="none" font-weight="none" font-size="none" text-anchor="none" style="mix-blend-mode: normal"><path d="M0,256v-256h256v256z" id="bgRectangle"></path></g><g fill="none" fill-rule="nonzero" stroke="none" stroke-width="1" stroke-linecap="butt" stroke-linejoin="miter" stroke-miterlimit="10" stroke-dasharray="" stroke-dashoffset="0" font-family="none" font-weight="none" font-size="none" text-anchor="none" style="mix-blend-mode: normal"><g transform="scale(5.33333,5.33333)"><path d="M18.89,32h2.11v8c0,1.1 -0.9,2 -2,2h-4c-1.1,0 -2,-0.9 -2,-2v-8h-8.11c-1.52,0 -2.48,-1.64 -1.75,-2.97l12.11,-21.87c0.76,-1.37 2.74,-1.37 3.5,0l4.85,9.74l-6.46,12.13c-0.73,1.33 0.23,2.97 1.75,2.97z" fill="#1de9b6"></path><path d="M43.11,32h-8.11v8c0,1.1 -0.9,2 -2,2h-4c-1.1,0 -2,-0.9 -2,-2v-8h2.11c1.52,0 2.48,-1.64 1.75,-2.97l-6.56,-12.13l4.95,-9.74c0.76,-1.37 2.74,-1.37 3.5,0l12.11,21.87c0.73,1.33 -0.23,2.97 -1.75,2.97z" fill="#26a69a"></path></g></g></svg>